<svg width="14" height="14" viewBox="0 0 14 14" fill="none" xmlns="http://www.w3.org/2000/svg">
<path d="M12.5668 1.625H1.43324C0.851846 1.625 0 2.09002 0 2.95814V10.2919C0 11.0271 0.642923 11.625 1.43324 11.625H12.5668C13.3571 11.625 14 11.0271 14 10.2919V2.95814C14 2.46985 13.6448 1.625 12.5668 1.625ZM11.0205 3.1063L7 6.15532L2.97952 3.1063H11.0205ZM1.59245 10.1437V4.151L6.44801 7.83347C6.60868 7.95525 6.80432 8.01623 6.99996 8.01623C7.19561 8.01623 7.39128 7.95539 7.55196 7.83347L12.4075 4.151V10.1437H1.59245Z" fill="#4BC53A"/>
</svg>
