<svg width="16" height="16" viewBox="0 0 16 16" fill="none" xmlns="http://www.w3.org/2000/svg">
<path d="M13.2307 3.87305H2.76933C1.79374 3.87305 1 4.66679 1 5.64237V12.3586C1 13.3342 1.79374 14.128 2.76933 14.128H13.2307C14.2063 14.128 15 13.3342 15 12.3586V5.64237C15 4.66679 14.2063 3.87305 13.2307 3.87305ZM12.9543 5.01435L8 8.84145L3.04575 5.01435H12.9543ZM13.2307 12.9867H2.76933C2.42305 12.9867 2.1413 12.705 2.1413 12.3587V5.75787L7.65114 10.0142C7.75386 10.0935 7.87697 10.1332 8 10.1332C8.12303 10.1332 8.24614 10.0935 8.34886 10.0142L13.8587 5.75787V12.3586C13.8587 12.705 13.5769 12.9867 13.2307 12.9867Z" fill="white"/>
</svg>
