<svg width="35" height="35" viewBox="0 0 35 35" fill="none" xmlns="http://www.w3.org/2000/svg">
<path d="M33.9746 0H1.02539C0.459102 0 0 0.459102 0 1.02539V23.6523C0 24.2186 0.459102 24.6777 1.02539 24.6777H12.373V28.8477C11.2346 28.8477 10.6809 28.8475 10.6583 28.848C9.35737 28.8694 8.30566 29.9343 8.30566 31.2402V33.9746C8.30566 34.5409 8.76477 35 9.33105 35H25.6689C26.2352 35 26.6943 34.5409 26.6943 33.9746V31.2402C26.6943 29.921 25.621 28.8477 24.3018 28.8477H22.627V24.6777H33.9746C34.5409 24.6777 35 24.2186 35 23.6523V1.02539C35 0.459102 34.5409 0 33.9746 0ZM24.6436 31.2402V32.9492H10.3564V31.2402C10.3564 31.0518 10.5098 30.8984 10.6982 30.8984H24.3018C24.4902 30.8984 24.6436 31.0518 24.6436 31.2402ZM20.5762 28.8477H14.4238V24.6777H16.4746V25.7031C16.4746 26.2694 16.9337 26.7285 17.5 26.7285C18.0663 26.7285 18.5254 26.2694 18.5254 25.7031V24.6777H20.5762V28.8477ZM32.9492 22.627H2.05078V2.05078H32.9492V22.627Z" fill="#4BC53A"/>
<path d="M17.5 20.5762C22.0232 20.5762 25.7031 16.8962 25.7031 12.373C25.7031 7.84984 22.0232 4.16992 17.5 4.16992C12.9768 4.16992 9.29688 7.84984 9.29688 12.373C9.29688 16.8962 12.9768 20.5762 17.5 20.5762ZM17.5 18.5254C16.1731 18.5254 14.9432 18.1031 13.9371 17.386L17.9247 13.3984H23.5664C23.0768 16.3045 20.5431 18.5254 17.5 18.5254ZM23.5664 11.3477H18.5254V6.30663C21.0978 6.74003 23.133 8.77522 23.5664 11.3477ZM16.4746 6.30663V11.9483L12.487 15.9359C11.7699 14.9299 11.3477 13.6999 11.3477 12.373C11.3477 9.32996 13.5686 6.79629 16.4746 6.30663Z" fill="#4BC53A"/>
</svg>
