<svg width="34" height="34" viewBox="0 0 34 34" fill="none" xmlns="http://www.w3.org/2000/svg">
<path d="M26.454 6.06287H1.50411C0.673414 6.06287 0 6.73628 0 7.56698C0 8.39768 0.673413 9.07109 1.50411 9.07109H26.454C27.2847 9.07109 27.9581 8.39768 27.9581 7.56698C27.9581 6.73628 27.2847 6.06287 26.454 6.06287Z" fill="#545951"/>
<path d="M26.496 26.0547H1.5461C0.715406 26.0547 0.0419922 26.7281 0.0419922 27.5588C0.0419922 28.3895 0.715405 29.0629 1.5461 29.0629H26.496C27.3266 29.0629 28.0001 28.3895 28.0001 27.5588C28.0001 26.7281 27.3267 26.0547 26.496 26.0547Z" fill="#545951"/>
<path d="M22.5019 16.0272H1.5461C0.715406 16.0272 0.0419922 16.7006 0.0419922 17.5313C0.0419922 18.362 0.715407 19.0354 1.54611 19.0354H22.5019C23.3326 19.0354 24.0061 18.362 24.0061 17.5313C24.0061 16.7006 23.3326 16.0272 22.5019 16.0272Z" fill="#545951"/>
</svg>
