<svg width="13" height="13" viewBox="0 0 13 13" fill="none" xmlns="http://www.w3.org/2000/svg">
<g clip-path="url(#clip0_418_366)">
<path d="M12.527 0.623785L9.8864 0.0144103C9.59948 -0.0516053 9.30495 0.0981994 9.18815 0.36734L7.9694 3.21109C7.86276 3.45992 7.93386 3.75191 8.1446 3.92203L9.68327 5.1814C8.76921 7.12886 7.17214 8.74878 5.18405 9.68062L3.92468 8.14195C3.75202 7.93121 3.46257 7.86011 3.21374 7.96675L0.369991 9.1855C0.0983113 9.30484 -0.0514933 9.59937 0.0145223 9.88628L0.623897 12.5269C0.687374 12.8011 0.931124 12.9992 1.21804 12.9992C7.72058 12.9992 12.9993 7.73062 12.9993 1.21793C12.9993 0.933551 12.8038 0.687262 12.527 0.623785Z" fill="#53BB45"/>
</g>
<defs>
<clipPath id="clip0_418_366">
<rect width="13" height="13" fill="white"/>
</clipPath>
</defs>
</svg>
