<svg width="16" height="16" viewBox="0 0 16 16" fill="none" xmlns="http://www.w3.org/2000/svg">
<path fill-rule="evenodd" clip-rule="evenodd" d="M10.9167 2.11111H5.08333C4.57707 2.11111 4.16667 2.50197 4.16667 2.98413V13.3016C4.16667 13.7837 4.57707 14.1746 5.08333 14.1746H10.9167C11.4229 14.1746 11.8333 13.7837 11.8333 13.3016V2.98413C11.8333 2.50197 11.4229 2.11111 10.9167 2.11111ZM5.08333 1C3.93274 1 3 1.88832 3 2.98413V13.3016C3 14.3974 3.93274 15.2857 5.08333 15.2857H10.9167C12.0673 15.2857 13 14.3974 13 13.3016V2.98413C13 1.88832 12.0673 1 10.9167 1H5.08333Z" fill="white"/>
<path d="M8.71422 11.7143C8.71422 12.1088 8.39442 12.4286 7.99993 12.4286C7.60544 12.4286 7.28564 12.1088 7.28564 11.7143C7.28564 11.3198 7.60544 11 7.99993 11C8.39442 11 8.71422 11.3198 8.71422 11.7143Z" fill="white"/>
</svg>
