<svg width="7" height="7" viewBox="0 0 7 7" fill="none" xmlns="http://www.w3.org/2000/svg">
<g clip-path="url(#clip0_406_44)">
<path d="M6.43344 1.80237C6.42985 1.61338 6.42642 1.43485 6.42642 1.26212C6.42642 1.12681 6.31675 1.01711 6.1814 1.01711C5.13354 1.01711 4.33573 0.715963 3.67072 0.0693768C3.57559 -0.0231419 3.4242 -0.0231093 3.3291 0.0693768C2.66415 0.715963 1.86647 1.01711 0.818676 1.01711C0.683361 1.01711 0.573658 1.12681 0.573658 1.26212C0.573658 1.43488 0.570261 1.61348 0.566634 1.8025C0.533051 3.56128 0.487053 5.97 3.41966 6.9865C3.44566 6.99551 3.47278 7.00002 3.49989 7.00002C3.52701 7.00002 3.55415 6.99551 3.58013 6.9865C6.51296 5.96996 6.46703 3.56118 6.43344 1.80237ZM3.49992 6.49499C0.984831 5.58133 1.02286 3.57986 1.0566 1.81185C1.05863 1.70574 1.06059 1.6029 1.06196 1.50208C2.04334 1.46065 2.82812 1.16327 3.49992 0.578034C4.1718 1.16327 4.9567 1.46069 5.93815 1.50208C5.93952 1.60286 5.94148 1.70564 5.9435 1.81168C5.97722 3.57977 6.01521 5.5813 3.49992 6.49499Z" fill="#6D6D6D"/>
<path d="M4.34376 2.6489L3.16117 3.83142L2.65653 3.32678C2.56085 3.23113 2.4057 3.23113 2.31005 3.32678C2.21436 3.4225 2.21436 3.57762 2.31005 3.6733L2.98793 4.35119C3.03576 4.39901 3.09848 4.42293 3.16117 4.42293C3.22387 4.42293 3.28659 4.39901 3.33442 4.35119L4.69022 2.99542C4.78594 2.89973 4.78594 2.74459 4.69025 2.64893C4.59459 2.55324 4.43945 2.55321 4.34376 2.6489Z" fill="#6D6D6D"/>
</g>
<defs>
<clipPath id="clip0_406_44">
<rect width="7" height="7" fill="white"/>
</clipPath>
</defs>
</svg>
