<svg width="27" height="16" viewBox="0 0 27 16" fill="none" xmlns="http://www.w3.org/2000/svg">
<path d="M21.6809 8.67383C21.2585 8.14441 21.3793 7.90888 21.6809 7.43564C21.6863 7.43024 25.1733 2.64818 25.5326 1.02643L25.5348 1.02534C25.7133 0.43434 25.5348 0 24.6715 0H21.8148C21.0875 0 20.7522 0.372754 20.5726 0.789807C20.5726 0.789807 19.1181 4.24508 17.0606 6.48485C16.3965 7.13203 16.0895 7.33948 15.7269 7.33948C15.5484 7.33948 15.2708 7.13203 15.2708 6.54103V1.02534C15.2708 0.316571 15.0672 0 14.4652 0H9.97331C9.51716 0 9.24608 0.330617 9.24608 0.638545C9.24608 1.31058 10.2749 1.46509 10.3816 3.35587V7.45833C10.3816 8.35726 10.2172 8.52257 9.85247 8.52257C8.88137 8.52257 6.5244 5.05325 5.12764 1.08261C4.84567 0.312249 4.57024 0.00108037 3.83756 0.00108037H0.979803C0.164389 0.00108037 0 0.373835 0 0.790888C0 1.52775 0.971094 5.19155 4.5158 10.032C6.87822 13.336 10.2052 15.1263 13.2317 15.1263C15.0509 15.1263 15.273 14.7287 15.273 14.0447C15.273 10.8877 15.1086 10.5895 16.0198 10.5895C16.4422 10.5895 17.1694 10.7969 18.8677 12.3906C20.8088 14.2803 21.1278 15.1263 22.2143 15.1263H25.071C25.8853 15.1263 26.2979 14.7287 26.0606 13.9443C25.5173 12.2944 21.8464 8.90073 21.6809 8.67383Z" fill="#2EB11C"/>
</svg>
