<svg width="26" height="26" viewBox="0 0 26 26" fill="none" xmlns="http://www.w3.org/2000/svg">
<path d="M13.0045 6.32437C9.31788 6.32437 6.3333 9.31215 6.3333 12.9954C6.3333 16.682 9.32113 19.6665 13.0045 19.6665C16.6911 19.6665 19.6756 16.6787 19.6756 12.9954C19.6756 9.3089 16.6878 6.32437 13.0045 6.32437ZM13.0045 17.3254C10.6114 17.3254 8.67438 15.3874 8.67438 12.9954C8.67438 10.6035 10.6125 8.66541 13.0045 8.66541C15.3965 8.66541 17.3346 10.6035 17.3346 12.9954C17.3356 15.3874 15.3976 17.3254 13.0045 17.3254Z" fill="#2EB11C"/>
<path d="M18.3606 0.0816674C15.9686 -0.0299139 10.0438 -0.0244974 7.64967 0.0816674C5.54583 0.180249 3.69008 0.688323 2.194 2.18438C-0.306337 4.68467 0.0132462 8.05378 0.0132462 12.9948C0.0132462 18.0517 -0.268421 21.3428 2.194 23.8052C4.70408 26.3141 8.122 25.9859 13.0046 25.9859C18.0139 25.9859 19.7429 25.9891 21.5142 25.3034C23.9224 24.3685 25.7403 22.2159 25.9179 18.3496C26.0306 15.9566 26.0241 10.033 25.9179 7.63887C25.7034 3.07487 23.254 0.306997 18.3606 0.0816674ZM22.1468 22.1509C20.5078 23.79 18.2338 23.6438 12.9732 23.6438C7.5565 23.6438 5.38441 23.7239 3.7995 22.1347C1.97408 20.318 2.3045 17.4006 2.3045 12.9774C2.3045 6.99213 1.69025 2.68162 7.69733 2.37396C9.0775 2.32521 9.48375 2.30896 12.958 2.30896L13.0067 2.34146C18.7798 2.34146 23.3093 1.73697 23.5812 7.74287C23.6429 9.11326 23.657 9.52492 23.657 12.9937C23.6559 18.3474 23.7578 20.5325 22.1468 22.1509Z" fill="#2EB11C"/>
<path d="M19.9398 7.62004C20.8007 7.62004 21.4987 6.9221 21.4987 6.06115C21.4987 5.2002 20.8007 4.50227 19.9398 4.50227C19.0788 4.50227 18.3809 5.2002 18.3809 6.06115C18.3809 6.9221 19.0788 7.62004 19.9398 7.62004Z" fill="#2EB11C"/>
</svg>
