<svg width="35" height="35" viewBox="0 0 35 35" fill="none" xmlns="http://www.w3.org/2000/svg">
<g clip-path="url(#clip0_367_169)">
<path d="M26.7977 21.2932L20.6251 23.7444C20.6739 22.1161 19.5323 20.6497 17.9004 20.3578L13.4844 19.5669C12.5146 17.3593 10.4288 15.8561 8.01623 15.678C6.42872 15.5609 4.89378 16.0244 3.65107 16.9695C3.47573 16.9375 3.59167 16.9586 1.02539 16.952C0.459102 16.952 0 17.4111 0 17.9774C0 18.5437 0.459102 19.0028 1.02539 19.0028H2.4407V30.8982H1.02546C0.45917 30.8982 6.83594e-05 31.3573 6.83594e-05 31.9236C6.83594e-05 32.4898 0.45917 32.9489 1.02546 32.9489H3.46616C4.03245 32.9489 4.49155 32.4898 4.49155 31.9236V30.6246H7.17664L18.5162 32.9284C18.7502 32.976 19.0034 32.9418 19.2259 32.8157L32.4977 25.2962C32.9338 25.0491 33.1274 24.5229 32.9553 24.0521C32.0448 21.5601 29.2629 20.3139 26.7977 21.2932ZM18.5486 30.8423L7.48392 28.5943C7.30563 28.5581 7.45555 28.5808 4.49162 28.5738V18.9481C5.39909 18.075 6.60878 17.6304 7.8655 17.7233C9.65665 17.8555 11.1865 19.0624 11.7631 20.7979C11.8815 21.1545 12.1856 21.4177 12.5554 21.484L17.5392 22.3766C18.2191 22.4982 18.6746 23.1634 18.5583 23.8621L18.5561 23.8733C18.5547 23.8803 18.5534 23.8874 18.5522 23.8944C18.4304 24.5962 17.7814 25.0562 17.1071 24.9363C17.1063 24.9362 17.1056 24.9361 17.1047 24.9359L17.1035 24.9357C17.103 24.9357 17.1025 24.9355 17.102 24.9355C17.102 24.9355 17.0888 24.9331 17.0888 24.9331L11.5395 23.939C10.9828 23.8393 10.4492 24.21 10.3494 24.7675C10.2495 25.3249 10.6205 25.8578 11.1779 25.9576C17.4011 27.0724 16.6666 26.94 16.7444 26.9548C18.1372 27.2038 18.2047 26.8438 27.5546 23.1993C28.6963 22.7459 29.9217 23.1442 30.6106 24.0084L18.5486 30.8423Z" fill="#56C947"/>
<path d="M16.1841 6.08398C14.4502 6.08398 13.0396 7.49465 13.0396 9.22852C13.0396 10.9624 14.4502 12.373 16.1841 12.373C17.9179 12.373 19.3286 10.9624 19.3286 9.22852C19.3286 7.49465 17.9179 6.08398 16.1841 6.08398ZM16.1841 10.3223C15.581 10.3223 15.0903 9.83158 15.0903 9.22852C15.0903 8.62545 15.581 8.13477 16.1841 8.13477C16.7871 8.13477 17.2778 8.62545 17.2778 9.22852C17.2778 9.83158 16.7871 10.3223 16.1841 10.3223Z" fill="#56C947"/>
<path d="M31.9238 6.2207H22.7418C21.5696 3.69893 19.0273 2.05078 16.2012 2.05078C12.2245 2.05078 8.98926 5.28603 8.98926 9.2627C8.98926 13.2394 12.2245 16.4746 16.2012 16.4746C18.9921 16.4746 21.5222 14.8535 22.7091 12.373H24.729V15.4492C24.729 16.0155 25.1881 16.4746 25.7544 16.4746H29.856C30.4222 16.4746 30.8813 16.0155 30.8813 15.4492V12.373H31.9238C33.62 12.373 35 10.9931 35 9.29688C35 7.60067 33.62 6.2207 31.9238 6.2207ZM31.9238 10.3223H29.856C29.2897 10.3223 28.8306 10.7814 28.8306 11.3477V14.4238H26.7798V11.3477C26.7798 10.7814 26.3207 10.3223 25.7544 10.3223H22.0272C21.594 10.3223 21.2077 10.5943 21.0617 11.0021C20.3293 13.0488 18.3759 14.4238 16.2012 14.4238C13.3553 14.4238 11.04 12.1086 11.04 9.2627C11.04 6.41683 13.3553 4.10156 16.2012 4.10156C18.4033 4.10156 20.3647 5.49951 21.0818 7.58023C21.2244 7.99388 21.6137 8.27148 22.0512 8.27148H31.9238C32.4892 8.27148 32.9492 8.73147 32.9492 9.29688C32.9492 9.86228 32.4892 10.3223 31.9238 10.3223Z" fill="#56C947"/>
</g>
<defs>
<clipPath id="clip0_367_169">
<rect width="35" height="35" fill="white"/>
</clipPath>
</defs>
</svg>
