<svg width="209" height="24" viewBox="0 0 209 24" fill="none" xmlns="http://www.w3.org/2000/svg">
<path d="M33.912 10.2746V12.5671H40.6273C41.234 12.5671 41.7361 13.0672 41.7361 13.6716V14.2968C41.7361 14.9012 41.234 15.4013 40.6273 15.4013H33.7028H33.0961C32.4894 15.4013 31.9873 14.9012 31.9873 14.2968V12.5671V10.0662V8.19061H33.7028H44.0582V5.06458H29.1631V14.4218C29.1631 16.6309 30.9622 18.4232 33.1797 18.4232H41.5059C43.2423 18.4232 44.644 17.0269 44.644 15.2971V13.3798C44.644 11.6501 43.2423 10.2538 41.5059 10.2538H33.912V10.2746Z" fill="#53BB45"/>
<path d="M59.1199 5.06396H58.6387C57.3417 5.06396 56.1701 5.83505 55.6471 7.02295L52.2372 14.8797C52.0489 15.3174 51.6305 15.5883 51.1493 15.5883C50.5217 15.5883 50.0196 15.0881 50.0196 14.4629V5.06396H47.0908V14.7547C47.0908 16.7762 48.7226 18.4226 50.7518 18.4226H51.6305C52.9275 18.4226 54.0991 17.6515 54.6221 16.4636L58.053 9.10697C58.2412 8.66933 58.6596 8.3984 59.1408 8.3984C59.7684 8.3984 60.2705 8.89857 60.2705 9.52378V18.4226H63.1365V9.08613C63.1156 6.87707 61.3374 5.06396 59.1199 5.06396Z" fill="#53BB45"/>
<path d="M168.868 5.06396H168.387C167.09 5.06396 165.918 5.83505 165.395 7.02295L161.985 14.8797C161.797 15.3174 161.379 15.5883 160.897 15.5883C160.27 15.5883 159.768 15.0881 159.768 14.4629V5.06396H156.839V14.7547C156.839 16.7762 158.471 18.4226 160.5 18.4226H161.379C162.676 18.4226 163.847 17.6515 164.37 16.4636L167.78 9.10697C167.968 8.66933 168.387 8.3984 168.868 8.3984C169.496 8.3984 169.998 8.89857 169.998 9.52378V18.4226H172.864V9.08613C172.864 6.87707 171.065 5.06396 168.868 5.06396Z" fill="#545951"/>
<path d="M77.7605 5.06396H69.4761C67.3213 5.06396 65.585 6.81455 65.585 8.98193V14.5254C65.585 16.6928 67.3213 18.4434 69.4761 18.4434H77.7605C79.9152 18.4434 81.6516 16.6928 81.6516 14.5254V8.98193C81.6516 6.81455 79.9152 5.06396 77.7605 5.06396ZM78.7646 14.0461C78.7646 14.6922 78.2416 15.2132 77.5931 15.2132H69.6016C68.9531 15.2132 68.4301 14.6922 68.4301 14.0461V9.44042C68.4301 8.79437 68.9531 8.27336 69.6016 8.27336H77.614C78.2625 8.27336 78.7855 8.79437 78.7855 9.44042V14.0461H78.7646Z" fill="#53BB45"/>
<path d="M133.115 5.06396H124.831C122.676 5.06396 120.939 6.81455 120.939 8.98193V14.5254C120.939 16.6928 122.676 18.4434 124.831 18.4434H133.115C135.27 18.4434 137.006 16.6928 137.006 14.5254V8.98193C137.006 6.81455 135.27 5.06396 133.115 5.06396ZM134.119 14.0461C134.119 14.6922 133.596 15.2132 132.948 15.2132H124.956C124.308 15.2132 123.785 14.6922 123.785 14.0461V9.44042C123.785 8.79437 124.308 8.27336 124.956 8.27336H132.948C133.596 8.27336 134.119 8.79437 134.119 9.44042V14.0461Z" fill="#545951"/>
<path d="M99.329 5.06396H93.304H89.8313H84.1201V8.37756H90.1869V18.4226H93.0321V8.37756H99.329V5.06396Z" fill="#545951"/>
<path d="M101.798 8.31504V18.4226H104.748V12.2955V9.71134C104.748 8.91941 105.375 8.27336 106.17 8.27336H106.609H114.392C115.187 8.27336 115.814 8.91941 115.814 9.71134V10.8576C115.814 11.6495 115.187 12.2955 114.392 12.2955H106.609V15.234H115.25C117.028 15.234 118.471 13.7752 118.471 11.9829V8.31504C118.471 6.52278 117.028 5.06396 115.25 5.06396H105.02C103.241 5.06396 101.798 6.52278 101.798 8.31504Z" fill="#545951"/>
<path d="M151.462 5.06396V9.98226H142.32V5.06396H139.475V18.4226H142.32V13.5043H151.462V18.4226H154.391V5.06396H151.462Z" fill="#545951"/>
<path d="M204.725 5.06396H196.775C194.683 5.06396 192.968 6.79371 192.968 8.91941V18.4226H195.813V15.0048H203.302V12.2538H195.813V10.0656C195.813 9.06529 196.608 8.25252 197.612 8.25252H203.323H203.888C204.871 8.25252 205.687 9.06529 205.687 10.0656V12.2538V15.0048V18.4226H208.553V8.91941C208.532 6.79371 206.817 5.06396 204.725 5.06396Z" fill="#545951"/>
<path d="M190.519 5.06396C190.519 5.06396 188.741 5.06396 186.942 5.06396C186.419 8.96109 184.892 10.2949 184.892 10.2949H178.323V5.06396H175.331V18.4226H178.323V13.4001H185.08C185.519 13.9002 186.544 15.3799 186.942 18.4226C188.741 18.4226 190.519 18.4226 190.519 18.4226C190.519 18.4226 189.682 13.8794 187.569 11.7328C189.682 9.60714 190.519 5.06396 190.519 5.06396Z" fill="#545951"/>
<path d="M21.3388 15.0881C21.9664 14.4629 21.9664 13.4626 21.3388 12.8374L14.5398 6.06427C13.3055 4.8347 11.3181 4.8347 10.1047 6.06427L3.30566 12.8374C2.67806 13.4626 2.67806 14.4629 3.30566 15.0881L3.78683 15.5674C4.39351 16.1718 5.39767 16.1926 6.02528 15.5883L10.2511 11.4827V23.4867H14.3933V11.4827L18.6192 15.5883C19.2468 16.1926 20.2509 16.1926 20.8576 15.5674L21.3388 15.0881Z" fill="white"/>
<path d="M10.2508 11.483L6.02499 15.5885C5.39739 16.1929 4.39322 16.1929 3.78654 15.5677L3.30538 15.0883C2.67777 14.4631 2.67777 13.4628 3.30538 12.8376L10.1044 6.06451C10.7111 5.46014 11.527 5.14754 12.3219 5.14754V4.16805C10.0207 4.16805 8.13792 2.31327 8.13792 0H6.63167C2.97065 0 0 2.95932 0 6.60636V16.8806C0 20.5276 2.97065 23.487 6.63167 23.487H10.2508V11.483Z" fill="#545951"/>
<path d="M17.9916 0H16.5063C16.5063 2.29243 14.6235 4.16805 12.3223 4.16805V5.14754C13.1172 5.14754 13.9331 5.46014 14.5398 6.06451L21.3388 12.8376C21.9664 13.4628 21.9664 14.4631 21.3388 15.0883L20.8577 15.5677C20.251 16.172 19.2468 16.1929 18.6192 15.5885L14.3934 11.483V23.487H17.9916C21.6526 23.487 24.6233 20.5276 24.6233 16.8806V6.60636C24.6233 2.95932 21.6526 0 17.9916 0Z" fill="#53BB45"/>
<path d="M12.3217 4.16805C14.6229 4.16805 16.5057 2.31327 16.5057 0H8.1377C8.1377 2.29243 10.0205 4.16805 12.3217 4.16805Z" fill="white"/>
</svg>
