<svg width="276" height="72" viewBox="0 0 276 72" fill="none" xmlns="http://www.w3.org/2000/svg">
<path d="M28.7008 8.76931C43.5493 8.76931 55.5886 20.6304 55.5886 35.2591C55.5886 49.8879 43.5493 61.749 28.7008 61.749C13.8523 61.749 1.813 49.8879 1.813 35.2591C1.813 20.6304 13.8523 8.76931 28.7008 8.76931ZM28.7008 8.13672C21.3488 8.13672 14.4302 10.9518 9.22921 16.0758C4.02823 21.1998 1.1709 28.016 1.1709 35.2591C1.1709 42.5023 4.02823 49.3185 9.22921 54.4425C14.4302 59.5665 21.3488 62.3816 28.7008 62.3816C36.0528 62.3816 42.9714 59.5665 48.1724 54.4425C53.3734 49.3185 56.2307 42.5023 56.2307 35.2591C56.2307 28.016 53.3734 21.1998 48.1724 16.0758C42.9714 10.9518 36.0528 8.13672 28.7008 8.13672Z" fill="#5AB93B"/>
<path d="M24.9284 23.603C25.9076 22.6383 27.1758 22.1322 28.46 22.069V21.0885C23.9332 20.9778 20.1769 17.799 19.278 13.5764C10.7542 17.1822 4.7666 25.5324 4.7666 35.2585C4.7666 46.9299 13.3868 56.6244 24.6877 58.5063V35.0213L17.8012 41.8059C16.228 43.3557 13.6917 43.3557 12.1186 41.8059C10.5455 40.256 10.5455 37.7573 12.1186 36.2074L24.9284 23.603Z" fill="#5AB93B"/>
<path d="M38.1078 13.5764C37.2088 17.799 33.4526 20.9936 28.9258 21.0885V22.069C30.21 22.1164 31.4781 22.6383 32.4573 23.603L45.2671 36.2233C46.8403 37.7731 46.8403 40.2718 45.2671 41.8217C44.4806 42.5966 43.4532 42.9762 42.4259 42.9762C41.3985 42.9762 40.3712 42.5966 39.5846 41.8217L32.7142 35.0213V58.5063C44.0151 56.6244 52.6352 46.9299 52.6352 35.2585C52.6352 25.5324 46.6477 17.1822 38.1078 13.5764Z" fill="#62615F"/>
<path d="M24.6874 58.5069C25.9876 58.7283 27.336 58.8391 28.7005 58.8391C30.0649 58.8391 31.4133 58.7283 32.7136 58.5069V35.0219L39.584 41.8223C40.3706 42.5972 41.3979 42.9768 42.4253 42.9768C43.4527 42.9768 44.48 42.5972 45.2666 41.8223C46.8397 40.2724 46.8397 37.7737 45.2666 36.2239L32.4567 23.6036C31.4775 22.6389 30.2094 22.117 28.9252 22.0696H28.4597C27.1755 22.1328 25.9074 22.6389 24.9282 23.6036L12.1183 36.208C10.5452 37.7579 10.5452 40.2566 12.1183 41.8065C13.6915 43.3563 16.2277 43.3563 17.8009 41.8065L24.6874 35.0219V58.5069Z" fill="white"/>
<path d="M72.5725 39.2183V27.3183H75.3945L78.5225 32.3503L81.6505 27.3183H84.4725V39.2183H81.8715V31.4493L78.5225 36.5323H78.4545L75.1395 31.5003V39.2183H72.5725ZM89.6433 39.3883C88.748 39.3883 88 39.1389 87.3993 38.6403C86.81 38.1416 86.5153 37.4503 86.5153 36.5663C86.5153 35.6029 86.844 34.8776 87.5013 34.3903C88.17 33.9029 89.0653 33.6593 90.1873 33.6593C90.9467 33.6593 91.689 33.7839 92.4143 34.0333V33.8803C92.4143 32.7696 91.7627 32.2143 90.4593 32.2143C89.6773 32.2143 88.8387 32.3786 87.9433 32.7073L87.2973 30.7353C88.408 30.2479 89.5867 30.0043 90.8333 30.0043C92.2047 30.0043 93.2303 30.3443 93.9103 31.0243C94.5677 31.6816 94.8963 32.6506 94.8963 33.9313V39.2183H92.3973V38.2323C91.706 39.0029 90.788 39.3883 89.6433 39.3883ZM90.4253 37.6033C91.026 37.6033 91.5133 37.4559 91.8873 37.1613C92.2613 36.8553 92.4483 36.4699 92.4483 36.0053V35.5463C91.961 35.3196 91.4113 35.2063 90.7993 35.2063C90.2327 35.2063 89.7907 35.3196 89.4733 35.5463C89.1673 35.7616 89.0143 36.0789 89.0143 36.4983C89.0143 36.8383 89.1447 37.1103 89.4053 37.3143C89.666 37.5069 90.006 37.6033 90.4253 37.6033ZM101.421 39.4223C100.061 39.4223 98.9275 38.9633 98.0209 38.0453C97.1255 37.1273 96.6779 36.0053 96.6779 34.6793C96.6779 33.3646 97.1312 32.2483 98.0379 31.3303C98.9445 30.4009 100.084 29.9363 101.455 29.9363C102.917 29.9363 104.124 30.4689 105.076 31.5343L103.563 33.0643C102.928 32.4636 102.22 32.1633 101.438 32.1633C100.803 32.1633 100.276 32.4069 99.8569 32.8943C99.4375 33.3816 99.2279 33.9766 99.2279 34.6793C99.2279 35.3933 99.4375 35.9939 99.8569 36.4813C100.288 36.9573 100.849 37.1953 101.54 37.1953C102.254 37.1953 102.951 36.8723 103.631 36.2263L105.144 37.7563C104.645 38.3003 104.113 38.7139 103.546 38.9973C102.979 39.2806 102.271 39.4223 101.421 39.4223ZM111.133 39.4223C109.773 39.4223 108.639 38.9633 107.733 38.0453C106.837 37.1273 106.39 36.0053 106.39 34.6793C106.39 33.3646 106.843 32.2483 107.75 31.3303C108.656 30.4009 109.795 29.9363 111.167 29.9363C112.629 29.9363 113.836 30.4689 114.788 31.5343L113.275 33.0643C112.64 32.4636 111.932 32.1633 111.15 32.1633C110.515 32.1633 109.988 32.4069 109.569 32.8943C109.149 33.3816 108.94 33.9766 108.94 34.6793C108.94 35.3933 109.149 35.9939 109.569 36.4813C109.999 36.9573 110.56 37.1953 111.252 37.1953C111.966 37.1953 112.663 36.8723 113.343 36.2263L114.856 37.7563C114.357 38.3003 113.824 38.7139 113.258 38.9973C112.691 39.2806 111.983 39.4223 111.133 39.4223ZM119.128 39.3883C118.232 39.3883 117.484 39.1389 116.884 38.6403C116.294 38.1416 116 37.4503 116 36.5663C116 35.6029 116.328 34.8776 116.986 34.3903C117.654 33.9029 118.55 33.6593 119.672 33.6593C120.431 33.6593 121.173 33.7839 121.899 34.0333V33.8803C121.899 32.7696 121.247 32.2143 119.944 32.2143C119.162 32.2143 118.323 32.3786 117.428 32.7073L116.782 30.7353C117.892 30.2479 119.071 30.0043 120.318 30.0043C121.689 30.0043 122.715 30.3443 123.395 31.0243C124.052 31.6816 124.381 32.6506 124.381 33.9313V39.2183H121.882V38.2323C121.19 39.0029 120.272 39.3883 119.128 39.3883ZM119.91 37.6033C120.51 37.6033 120.998 37.4559 121.372 37.1613C121.746 36.8553 121.933 36.4699 121.933 36.0053V35.5463C121.445 35.3196 120.896 35.2063 120.284 35.2063C119.717 35.2063 119.275 35.3196 118.958 35.5463C118.652 35.7616 118.499 36.0789 118.499 36.4983C118.499 36.8383 118.629 37.1103 118.89 37.3143C119.15 37.5069 119.49 37.6033 119.91 37.6033ZM134.322 39.2183H131.721V36.8553L130.633 35.5803L128.338 39.2183H125.448L128.899 33.8803L125.55 30.1063H128.525L131.721 33.9823V30.1063H134.322V33.9823L137.518 30.1063H140.51L137.161 33.8803L140.595 39.2183H137.722L135.41 35.5803L134.322 36.8553V39.2183ZM150.092 30.1063V39.2183H147.508V35.7333H144.329V39.2183H141.745V30.1063H144.329V33.6083H147.508V30.1063H150.092ZM152.403 39.2183V30.1063H154.987V33.1153H156.857C157.956 33.1153 158.835 33.3703 159.492 33.8803C160.161 34.3903 160.495 35.1383 160.495 36.1243C160.495 37.0876 160.183 37.8469 159.56 38.4023C158.948 38.9463 158.092 39.2183 156.993 39.2183H152.403ZM156.602 35.0703H154.987V37.1783H156.619C157.469 37.1783 157.894 36.8156 157.894 36.0903C157.894 35.7729 157.781 35.5236 157.554 35.3423C157.339 35.1609 157.021 35.0703 156.602 35.0703ZM161.702 39.2183V30.1063H164.286V39.2183H161.702ZM170.915 39.4223C169.533 39.4223 168.394 38.9859 167.498 38.1133C166.603 37.2293 166.155 36.0846 166.155 34.6793C166.155 33.3533 166.58 32.2313 167.43 31.3133C168.28 30.3953 169.357 29.9363 170.66 29.9363C172.1 29.9363 173.199 30.4123 173.958 31.3643C174.718 32.3163 175.097 33.4893 175.097 34.8833C175.097 35.0193 175.086 35.2459 175.063 35.5633H168.722C168.847 36.1413 169.102 36.5833 169.487 36.8893C169.873 37.1953 170.36 37.3483 170.949 37.3483C171.754 37.3483 172.491 37.0366 173.159 36.4133L174.638 37.7223C173.72 38.8556 172.479 39.4223 170.915 39.4223ZM168.688 33.9483H172.581C172.502 33.3589 172.292 32.8886 171.952 32.5373C171.624 32.1859 171.193 32.0103 170.66 32.0103C170.139 32.0103 169.703 32.1859 169.351 32.5373C169.011 32.8773 168.79 33.3476 168.688 33.9483Z" fill="#5AB93B"/>
<path d="M177.295 39.2183V27.3183H179.913V32.5203L184.741 27.3183H187.903L183.058 32.3673L188.124 39.2183H184.979L181.29 34.1523L179.913 35.5803V39.2183H177.295ZM189.441 41.9383V30.1063H192.025V31.4153C192.75 30.4293 193.697 29.9363 194.864 29.9363C195.997 29.9363 196.972 30.3613 197.788 31.2113C198.604 32.0613 199.012 33.2173 199.012 34.6793C199.012 36.1299 198.604 37.2803 197.788 38.1303C196.983 38.9689 196.009 39.3883 194.864 39.3883C193.731 39.3883 192.784 38.9349 192.025 38.0283V41.9383H189.441ZM192.62 36.4983C193.051 36.9629 193.578 37.1953 194.201 37.1953C194.824 37.1953 195.351 36.9629 195.782 36.4983C196.213 36.0223 196.428 35.4046 196.428 34.6453C196.428 33.9086 196.213 33.3079 195.782 32.8433C195.351 32.3673 194.824 32.1293 194.201 32.1293C193.578 32.1293 193.051 32.3673 192.62 32.8433C192.201 33.3079 191.991 33.9199 191.991 34.6793C191.991 35.4159 192.201 36.0223 192.62 36.4983ZM205.231 39.4223C203.848 39.4223 202.709 38.9859 201.814 38.1133C200.919 37.2293 200.471 36.0846 200.471 34.6793C200.471 33.3533 200.896 32.2313 201.746 31.3133C202.596 30.3953 203.673 29.9363 204.976 29.9363C206.415 29.9363 207.515 30.4123 208.274 31.3643C209.033 32.3163 209.413 33.4893 209.413 34.8833C209.413 35.0193 209.402 35.2459 209.379 35.5633H203.038C203.163 36.1413 203.418 36.5833 203.803 36.8893C204.188 37.1953 204.676 37.3483 205.265 37.3483C206.07 37.3483 206.806 37.0366 207.475 36.4133L208.954 37.7223C208.036 38.8556 206.795 39.4223 205.231 39.4223ZM203.004 33.9483H206.897C206.818 33.3589 206.608 32.8886 206.268 32.5373C205.939 32.1859 205.509 32.0103 204.976 32.0103C204.455 32.0103 204.018 32.1859 203.667 32.5373C203.327 32.8773 203.106 33.3476 203.004 33.9483ZM215.64 39.4223C214.28 39.4223 213.146 38.9633 212.24 38.0453C211.344 37.1273 210.897 36.0053 210.897 34.6793C210.897 33.3646 211.35 32.2483 212.257 31.3303C213.163 30.4009 214.302 29.9363 215.674 29.9363C217.136 29.9363 218.343 30.4689 219.295 31.5343L217.782 33.0643C217.147 32.4636 216.439 32.1633 215.657 32.1633C215.022 32.1633 214.495 32.4069 214.076 32.8943C213.656 33.3816 213.447 33.9766 213.447 34.6793C213.447 35.3933 213.656 35.9939 214.076 36.4813C214.506 36.9573 215.067 37.1953 215.759 37.1953C216.473 37.1953 217.17 36.8723 217.85 36.2263L219.363 37.7563C218.864 38.3003 218.331 38.7139 217.765 38.9973C217.198 39.2806 216.49 39.4223 215.64 39.4223ZM222.139 30.1063H229.466V39.2183H226.882V32.3163H224.57C224.57 33.5176 224.524 34.5319 224.434 35.3593C224.343 36.1866 224.218 36.8609 224.06 37.3823C223.901 37.9036 223.68 38.3059 223.397 38.5893C223.113 38.8726 222.807 39.0653 222.479 39.1673C222.15 39.2693 221.742 39.3203 221.255 39.3203C220.79 39.3203 220.354 39.2693 219.946 39.1673L220.116 37.0763C220.32 37.1103 220.501 37.1273 220.66 37.1273C220.932 37.1273 221.147 37.0649 221.306 36.9403C221.464 36.8043 221.612 36.5096 221.748 36.0563C221.895 35.5916 221.997 34.8833 222.054 33.9313C222.11 32.9679 222.139 31.6929 222.139 30.1063ZM234.359 39.3883C233.464 39.3883 232.716 39.1389 232.115 38.6403C231.526 38.1416 231.231 37.4503 231.231 36.5663C231.231 35.6029 231.56 34.8776 232.217 34.3903C232.886 33.9029 233.781 33.6593 234.903 33.6593C235.662 33.6593 236.405 33.7839 237.13 34.0333V33.8803C237.13 32.7696 236.478 32.2143 235.175 32.2143C234.393 32.2143 233.554 32.3786 232.659 32.7073L232.013 30.7353C233.124 30.2479 234.302 30.0043 235.549 30.0043C236.92 30.0043 237.946 30.3443 238.626 31.0243C239.283 31.6816 239.612 32.6506 239.612 33.9313V39.2183H237.113V38.2323C236.422 39.0029 235.504 39.3883 234.359 39.3883ZM235.141 37.6033C235.742 37.6033 236.229 37.4559 236.603 37.1613C236.977 36.8553 237.164 36.4699 237.164 36.0053V35.5463C236.677 35.3196 236.127 35.2063 235.515 35.2063C234.948 35.2063 234.506 35.3196 234.189 35.5463C233.883 35.7616 233.73 36.0789 233.73 36.4983C233.73 36.8383 233.86 37.1103 234.121 37.3143C234.382 37.5069 234.722 37.6033 235.141 37.6033ZM241.734 39.2183V36.4983H244.488V39.2183H241.734ZM246.7 41.9383V30.1063H249.284V31.4153C250.009 30.4293 250.956 29.9363 252.123 29.9363C253.256 29.9363 254.231 30.3613 255.047 31.2113C255.863 32.0613 256.271 33.2173 256.271 34.6793C256.271 36.1299 255.863 37.2803 255.047 38.1303C254.242 38.9689 253.268 39.3883 252.123 39.3883C250.99 39.3883 250.043 38.9349 249.284 38.0283V41.9383H246.7ZM249.879 36.4983C250.31 36.9629 250.837 37.1953 251.46 37.1953C252.083 37.1953 252.61 36.9629 253.041 36.4983C253.472 36.0223 253.687 35.4046 253.687 34.6453C253.687 33.9086 253.472 33.3079 253.041 32.8433C252.61 32.3673 252.083 32.1293 251.46 32.1293C250.837 32.1293 250.31 32.3673 249.879 32.8433C249.46 33.3079 249.25 33.9199 249.25 34.6793C249.25 35.4159 249.46 36.0223 249.879 36.4983ZM267.097 32.1633C266.757 32.1633 266.388 32.3106 265.992 32.6053V36.7703C266.354 37.0423 266.723 37.1783 267.097 37.1783C267.72 37.1783 268.196 36.9573 268.525 36.5153C268.865 36.0733 269.035 35.4613 269.035 34.6793C269.035 33.9199 268.865 33.3136 268.525 32.8603C268.185 32.3956 267.709 32.1633 267.097 32.1633ZM265.992 41.9383H263.391V38.6063C263.198 38.8103 262.926 38.9859 262.575 39.1333C262.223 39.2693 261.849 39.3373 261.453 39.3373C260.353 39.3373 259.464 38.9236 258.784 38.0963C258.104 37.2689 257.764 36.1299 257.764 34.6793C257.764 33.2286 258.104 32.0896 258.784 31.2623C259.464 30.4236 260.359 30.0043 261.47 30.0043C261.855 30.0043 262.223 30.0893 262.575 30.2593C262.926 30.4293 263.198 30.6276 263.391 30.8543V27.3183H265.992V30.8543C266.184 30.6276 266.456 30.4293 266.808 30.2593C267.159 30.0893 267.527 30.0043 267.913 30.0043C269.023 30.0043 269.919 30.4236 270.599 31.2623C271.279 32.0896 271.619 33.2286 271.619 34.6793C271.619 36.1299 271.279 37.2689 270.599 38.0963C269.919 38.9236 269.029 39.3373 267.93 39.3373C267.533 39.3373 267.159 39.2693 266.808 39.1333C266.456 38.9859 266.184 38.8103 265.992 38.6063V41.9383ZM262.286 32.1633C261.674 32.1633 261.198 32.3956 260.858 32.8603C260.518 33.3136 260.348 33.9199 260.348 34.6793C260.348 35.4613 260.512 36.0733 260.841 36.5153C261.181 36.9573 261.662 37.1783 262.286 37.1783C262.66 37.1783 263.028 37.0423 263.391 36.7703V32.6053C262.994 32.3106 262.626 32.1633 262.286 32.1633Z" fill="white"/>
</svg>
