<svg width="265" height="80" viewBox="0 0 265 80" fill="none" xmlns="http://www.w3.org/2000/svg">
<path d="M82 46.7638H88.047C90.877 46.7638 92.7909 44.9134 92.7909 42.315C92.7909 39.7165 90.877 37.8268 88.047 37.8268H85.563V35.6417H91.4675V32.689H82V46.7638ZM85.563 43.811V40.7795H87.314C88.556 40.7795 89.1668 41.4291 89.1668 42.315C89.1668 43.2008 88.556 43.811 87.3751 43.811H85.563Z" fill="white"/>
<path d="M95.6986 46.7638H99.282L103.334 40.2087C103.904 39.2835 104.555 37.8071 104.555 37.8071H104.596C104.596 37.8071 104.433 39.3228 104.433 40.2087V46.7638H107.996V32.689H104.392L100.361 39.2638C99.791 40.189 99.1395 41.6654 99.1395 41.6654H99.0987C99.0987 41.6654 99.2616 40.1496 99.2616 39.2638V32.689H95.6986V46.7638Z" fill="white"/>
<path d="M111.069 39.6378C111.069 43.7717 114.286 47 118.683 47C123.081 47 126.298 43.7717 126.298 39.6378C126.298 35.6024 123.081 32.4528 118.683 32.4528C114.286 32.4528 111.069 35.6024 111.069 39.6378ZM114.754 39.6378C114.754 37.3346 116.505 35.6024 118.683 35.6024C120.862 35.6024 122.613 37.3346 122.613 39.6378C122.613 42.0394 120.862 43.8504 118.683 43.8504C116.505 43.8504 114.754 42.0394 114.754 39.6378Z" fill="white"/>
<path d="M129.379 46.7638H132.942V41.0551H134.408L137.482 46.7638H141.473L137.319 39.4606V39.4213L141.249 32.689H137.421L134.408 38.122H132.942V32.689H129.379V46.7638Z" fill="white"/>
<path d="M142.344 46.7638H146.009L146.885 43.811H151.425L152.321 46.7638H155.986L151.038 32.689H147.292L142.344 46.7638ZM147.719 41.0551L148.554 38.3189C148.819 37.4331 149.145 35.8976 149.145 35.8976H149.185C149.185 35.8976 149.511 37.4331 149.776 38.3189L150.59 41.0551H147.719Z" fill="white"/>
<path d="M157.697 46.7638H161.28L161.728 40.4252C161.81 39.3622 161.728 38.063 161.728 38.063H161.769C161.769 38.063 162.258 39.5394 162.584 40.4252L164.111 44.5H167.165L168.692 40.4252C169.017 39.5394 169.506 38.063 169.506 38.063H169.547C169.547 38.063 169.465 39.3622 169.547 40.4252L169.995 46.7638H173.558L172.377 32.689H168.508L166.391 38.6339C166.065 39.5394 165.658 40.9567 165.658 40.9567H165.617C165.617 40.9567 165.21 39.5394 164.884 38.6339L162.767 32.689H158.898L157.697 46.7638Z" fill="white"/>
<path d="M176.877 46.7638H180.46L184.512 40.2087C185.082 39.2835 185.734 37.8071 185.734 37.8071H185.774C185.774 37.8071 185.611 39.3228 185.611 40.2087V46.7638H189.174V32.689H185.571L181.539 39.2638C180.969 40.189 180.318 41.6654 180.318 41.6654H180.277C180.277 41.6654 180.44 40.1496 180.44 39.2638V32.689H176.877V46.7638Z" fill="white"/>
<path d="M193.041 46.7638H196.604V41.252H201.898V46.7638H205.461V32.689H201.898V38.3189H196.604V32.689H193.041V46.7638Z" fill="white"/>
<path d="M208.999 46.7638H212.338V43.5354H208.999V46.7638Z" fill="white"/>
<path d="M215.885 46.7638H219.448V42.4134H221.932C224.762 42.4134 226.676 40.3661 226.676 37.5315C226.676 34.6969 224.762 32.689 221.932 32.689H215.885V46.7638ZM219.448 39.4606V35.6417H221.26C222.441 35.6417 223.052 36.4094 223.052 37.5315C223.052 38.6535 222.441 39.4606 221.199 39.4606H219.448Z" fill="white"/>
<path d="M228.406 39.2441C228.406 42.6299 231.033 45.2283 234.922 45.2283V47H238.485V45.2283C242.374 45.2283 245 42.6299 245 39.2441C245 35.9567 242.374 33.437 238.485 33.437V32H234.922V33.437C231.033 33.437 228.406 35.9567 228.406 39.2441ZM238.485 42.3543V36.311C240.134 36.311 241.376 37.6299 241.376 39.2441C241.376 40.9567 240.134 42.3543 238.485 42.3543ZM232.031 39.2441C232.031 37.6299 233.273 36.311 234.922 36.311V42.3543C233.273 42.3543 232.031 40.9567 232.031 39.2441Z" fill="white"/>
<path d="M45.9036 36.1618C50.2896 33.5302 53.7983 30.6063 55.5527 30.0215L57.3071 29.1443C56.1375 28.5595 53.6229 27.3899 52.9211 27.3899H38.0089C36.2545 27.3899 30.1142 30.0215 29.237 30.0215C28.5352 30.0215 27.775 34.6998 27.4826 37.039L21.3423 48.4425L26.6054 58.0915L34.5001 64.2319L37.1317 54.5828C38.5937 49.9044 41.5177 38.7934 45.9036 36.1618Z" fill="white"/>
<path fill-rule="evenodd" clip-rule="evenodd" d="M49.435 47.0635C47.5548 54.0498 44.2349 59.7257 36.0659 62.1061C46.4949 66.639 52.2859 55.2693 49.435 47.0635Z" fill="#B21011"/>
<path fill-rule="evenodd" clip-rule="evenodd" d="M34.2432 19.8242C34.728 19.8219 35.6276 19.6734 36.7243 19.6868C37.361 19.6945 38.8157 19.8577 39.2503 19.795C39.4941 17.011 36.7673 13.0853 35.7219 12.9478C35.5594 14.4497 35.756 15.2723 35.3911 16.7701C35.2667 17.2806 35.1188 17.771 34.8907 18.3212C34.7093 18.7586 34.2952 19.4093 34.2432 19.8242Z" fill="#B21011"/>
<path fill-rule="evenodd" clip-rule="evenodd" d="M60.5777 42.2453C60.4791 57.7297 47.8978 70.2521 32.3899 70.2521C16.8213 70.2521 4.2002 57.631 4.2002 42.0623C4.2002 32.0901 9.37813 23.3272 17.1921 18.3159C13.4714 22.7158 11.2267 28.4041 11.2267 34.6177C11.2267 35.835 11.3141 37.0317 11.4807 38.2028C14.1275 37.5656 17.9949 34.0969 20.8737 30.8702C24.2646 26.3684 27.104 21.4244 28.462 15.9065C28.6381 15.1904 28.9967 12.6271 29.2761 12.2C29.6285 12.3876 31.6471 15.0539 31.9995 15.6248C34.1483 19.1064 32.6771 20.3373 33.7508 20.4097C33.8171 20.4141 34.0194 20.4065 34.0931 20.4031C34.3673 20.3906 34.5286 20.3684 34.7805 20.34C40.2973 19.7154 42.7373 21.8811 46.7928 23.5085C48.6101 24.2375 51.3136 25.1203 53.277 25.3242C53.6996 25.3681 54.3156 25.4282 54.7056 25.5134C55.7679 25.7456 57.9855 25.6843 59.2836 25.6978C59.4269 26.6969 58.2102 28.8057 57.2265 29.5271C56.5076 30.0543 54.1789 31.322 53.2206 31.4079C53.5136 30.6453 55.2967 29.8204 55.4103 28.8016L54.2954 28.8433C50.4416 28.9157 48.481 28.0598 44.958 28.0538C42.1973 28.0491 39.2529 28.6147 36.9824 29.3472C36.215 29.5947 34.4467 30.3251 33.7179 30.7318C33.1686 31.0383 31.5491 31.9051 31.0788 32.3839C32.488 32.1019 33.9563 32.0802 35.4221 32.3804C29.0855 34.7226 22.5033 46.0912 24.3501 52.2104C24.4442 50.191 25.0905 48.203 26.3748 46.5333C25.8521 51.7631 30.6013 59.9647 35.4056 61.7467C30.8656 46.2377 34.8341 39.6984 50.2071 33.2776C38.6373 42.909 39.1753 53.1971 42.6391 59.1254C51.1508 56.9961 57.9509 50.5483 60.5777 42.2453Z" fill="#F2532F"/>
<path fill-rule="evenodd" clip-rule="evenodd" d="M18.6833 39.8425C16.4247 44.7917 17.8467 53.5053 24.1622 59.2073C12.8001 58.7431 11.2729 44.768 18.6833 39.8425Z" fill="#B21011"/>
<path fill-rule="evenodd" clip-rule="evenodd" d="M36.2231 23.6303C36.3272 23.8536 37.4197 24.4115 37.8869 24.7595C38.152 24.9571 38.4799 25.2003 38.7257 25.3644C39.0844 25.6038 39.4907 25.5173 39.9539 25.3998C41.6459 24.9705 43.3511 25.1116 45.2573 25.0292C45.0251 24.555 42.0458 23.7751 41.2899 23.6666C40.5737 23.5638 36.5772 23.2049 36.2231 23.6303Z" fill="#FEFEFE"/>
</svg>
