<svg width="328" height="70" viewBox="0 0 328 70" fill="none" xmlns="http://www.w3.org/2000/svg">
<path d="M95.4346 41.5029C95.4346 43.1195 94.8844 44.4398 93.7842 45.4639C92.6924 46.488 91.2874 47 89.5693 47H82.9043V28.6807H93.6064V30.7373H85.1895V35.9805H89.5439C91.2705 35.9805 92.6839 36.4967 93.7842 37.5293C94.8844 38.5534 95.4346 39.8779 95.4346 41.5029ZM85.1895 44.9434H88.9727C90.2845 44.9434 91.2959 44.6471 92.0068 44.0547C92.7262 43.4538 93.0859 42.6032 93.0859 41.5029C93.0859 40.3942 92.7262 39.5394 92.0068 38.9385C91.2959 38.3376 90.2845 38.0371 88.9727 38.0371H85.1895V44.9434ZM110.275 47L108.435 41.7568H101.147L99.3066 47H96.9072L103.661 28.6807H105.921L112.675 47H110.275ZM104.753 31.4609L101.82 39.8145H107.762L104.829 31.4609H104.753ZM122.057 47.3047C119.526 47.3047 117.516 46.4541 116.026 44.7529C114.545 43.0433 113.805 40.737 113.805 37.834C113.805 34.9564 114.554 32.6628 116.052 30.9531C117.55 29.235 119.551 28.376 122.057 28.376C124.003 28.376 125.662 28.9092 127.033 29.9756C128.413 31.0335 129.272 32.4427 129.61 34.2031H127.274C126.944 33.069 126.305 32.1676 125.357 31.499C124.41 30.8219 123.309 30.4834 122.057 30.4834C120.271 30.4834 118.84 31.152 117.766 32.4893C116.691 33.8265 116.153 35.6081 116.153 37.834C116.153 40.0853 116.687 41.8753 117.753 43.2041C118.819 44.5329 120.258 45.1973 122.069 45.1973C123.364 45.1973 124.465 44.9095 125.37 44.334C126.276 43.7585 126.91 42.946 127.274 41.8965H129.61C129.162 43.64 128.286 44.9772 126.982 45.9082C125.679 46.8392 124.037 47.3047 122.057 47.3047ZM140.109 47.3047C137.579 47.3047 135.569 46.4541 134.079 44.7529C132.598 43.0433 131.857 40.737 131.857 37.834C131.857 34.9564 132.606 32.6628 134.104 30.9531C135.603 29.235 137.604 28.376 140.109 28.376C142.056 28.376 143.715 28.9092 145.086 29.9756C146.465 31.0335 147.325 32.4427 147.663 34.2031H145.327C144.997 33.069 144.358 32.1676 143.41 31.499C142.462 30.8219 141.362 30.4834 140.109 30.4834C138.324 30.4834 136.893 31.152 135.818 32.4893C134.743 33.8265 134.206 35.6081 134.206 37.834C134.206 40.0853 134.739 41.8753 135.806 43.2041C136.872 44.5329 138.311 45.1973 140.122 45.1973C141.417 45.1973 142.517 44.9095 143.423 44.334C144.328 43.7585 144.963 42.946 145.327 41.8965H147.663C147.215 43.64 146.339 44.9772 145.035 45.9082C143.732 46.8392 142.09 47.3047 140.109 47.3047ZM161.971 44.9434V47H150.621V28.6807H161.971V30.7373H152.906V36.6152H161.501V38.6465H152.906V44.9434H161.971ZM177.611 47V32.4258H177.408L167.506 47H165.246V28.6807H167.506V43.3057H167.709L177.611 28.6807H179.871V47H177.611ZM168.61 23.5264H170.172C170.172 24.2458 170.396 24.8509 170.845 25.3418C171.293 25.8242 171.86 26.0654 172.546 26.0654C173.231 26.0654 173.799 25.8242 174.247 25.3418C174.696 24.8509 174.92 24.2458 174.92 23.5264H176.481C176.481 24.6436 176.113 25.5576 175.377 26.2686C174.649 26.971 173.705 27.3223 172.546 27.3223C171.386 27.3223 170.438 26.971 169.702 26.2686C168.974 25.5576 168.61 24.6436 168.61 23.5264ZM198.305 47H196.02V38.6592H185.965V47H183.68V28.6807H185.965V36.6025H196.02V28.6807H198.305V47ZM202.113 47V28.6807H204.398V35.4727H208.88C210.606 35.4727 212.02 36.0143 213.12 37.0977C214.22 38.1725 214.771 39.5563 214.771 41.249C214.771 42.9417 214.225 44.3255 213.133 45.4004C212.041 46.4668 210.632 47 208.905 47H202.113ZM204.398 44.9434H208.309C209.62 44.9434 210.632 44.6217 211.343 43.9785C212.062 43.3353 212.422 42.4255 212.422 41.249C212.422 40.0641 212.062 39.1501 211.343 38.5068C210.632 37.8551 209.62 37.5293 208.309 37.5293H204.398V44.9434ZM219.506 47H217.221V28.6807H219.506V47ZM231.147 40.6016H222.819V38.5449H231.147V40.6016ZM242.002 47.3047C239.471 47.3047 237.461 46.4541 235.972 44.7529C234.491 43.0433 233.75 40.737 233.75 37.834C233.75 34.9564 234.499 32.6628 235.997 30.9531C237.495 29.235 239.497 28.376 242.002 28.376C243.949 28.376 245.607 28.9092 246.979 29.9756C248.358 31.0335 249.217 32.4427 249.556 34.2031H247.22C246.89 33.069 246.251 32.1676 245.303 31.499C244.355 30.8219 243.255 30.4834 242.002 30.4834C240.216 30.4834 238.786 31.152 237.711 32.4893C236.636 33.8265 236.099 35.6081 236.099 37.834C236.099 40.0853 236.632 41.8753 237.698 43.2041C238.765 44.5329 240.203 45.1973 242.015 45.1973C243.31 45.1973 244.41 44.9095 245.315 44.334C246.221 43.7585 246.856 42.946 247.22 41.8965H249.556C249.107 43.64 248.231 44.9772 246.928 45.9082C245.624 46.8392 243.982 47.3047 242.002 47.3047ZM266.872 47H264.612V30.7627H254.812V47H252.514V28.6807H266.872V47ZM282.602 47L280.761 41.7568H273.474L271.633 47H269.233L275.987 28.6807H278.247L285.001 47H282.602ZM277.079 31.4609L274.146 39.8145H280.088L277.155 31.4609H277.079ZM289.774 46.708C289.495 46.9873 289.152 47.127 288.746 47.127C288.34 47.127 287.997 46.9873 287.718 46.708C287.438 46.4287 287.299 46.0859 287.299 45.6797C287.299 45.2734 287.438 44.9307 287.718 44.6514C287.997 44.3721 288.34 44.2324 288.746 44.2324C289.152 44.2324 289.495 44.3721 289.774 44.6514C290.054 44.9307 290.193 45.2734 290.193 45.6797C290.193 46.0859 290.054 46.4287 289.774 46.708ZM293.951 28.6807H300.489C302.207 28.6807 303.612 29.2308 304.704 30.3311C305.804 31.4229 306.354 32.832 306.354 34.5586C306.354 36.2936 305.804 37.7113 304.704 38.8115C303.604 39.9118 302.19 40.4619 300.464 40.4619H296.236V47H293.951V28.6807ZM296.236 30.7119V38.4307H299.893C301.196 38.4307 302.207 38.0921 302.927 37.415C303.646 36.7295 304.006 35.7773 304.006 34.5586C304.006 33.3398 303.646 32.3962 302.927 31.7275C302.216 31.0505 301.204 30.7119 299.893 30.7119H296.236ZM316.485 43.293V32.2607C314.7 32.3285 313.286 32.8574 312.245 33.8477C311.213 34.8294 310.696 36.137 310.696 37.7705C310.696 39.4209 311.213 40.7412 312.245 41.7314C313.286 42.7132 314.7 43.2337 316.485 43.293ZM324.521 37.7832C324.521 36.1413 324.005 34.8252 322.973 33.835C321.94 32.8447 320.531 32.32 318.745 32.2607V43.293C320.531 43.2253 321.94 42.7005 322.973 41.7188C324.005 40.7285 324.521 39.4167 324.521 37.7832ZM316.485 45.3369C314.006 45.2777 312.034 44.5667 310.569 43.2041C309.114 41.8415 308.386 40.0303 308.386 37.7705C308.386 35.5192 309.114 33.7165 310.569 32.3623C312.025 30.9997 313.997 30.2845 316.485 30.2168V28.4268H318.745V30.2168C321.225 30.276 323.193 30.987 324.648 32.3496C326.104 33.7122 326.832 35.5234 326.832 37.7832C326.832 40.0345 326.104 41.8415 324.648 43.2041C323.193 44.5583 321.225 45.2692 318.745 45.3369V47.2539H316.485V45.3369Z" fill="white"/>
<mask id="mask0_445_48" style="mask-type:alpha" maskUnits="userSpaceOnUse" x="0" y="0" width="51" height="70">
<path d="M50.9331 45.0932C50.9331 58.7755 39.7183 69.8671 25.884 69.8671C12.0498 69.8671 0.834961 58.7755 0.834961 45.0932C0.834961 40.3905 3.79416 31.6081 7.67834 24.7325C15.095 11.6041 25.884 0.133301 25.884 0.133301C25.884 0.133301 36.6731 11.6041 44.0898 24.7325C47.974 31.6081 50.9331 40.3905 50.9331 45.0932Z" fill="#59B2ED"/>
</mask>
<g mask="url(#mask0_445_48)">
<path d="M50.9331 45.0929C50.9331 58.7751 39.7183 69.8667 25.884 69.8667C12.0498 69.8667 0.834961 58.7751 0.834961 45.0929C0.834961 40.3901 3.79416 31.6077 7.67834 24.7321C15.095 11.6037 25.884 2.35254 25.884 2.35254C25.884 2.35254 36.6731 11.6037 44.0898 24.7321C47.974 31.6077 50.9331 40.3901 50.9331 45.0929Z" fill="#59B2ED"/>
<path d="M26.495 42.7453C13.6308 33.031 4.02821 42.1226 0.834961 47.8828L4.94058 83.3776L46.5884 79.1743L53.8658 42.7453C47.3652 51.619 42.5754 54.8883 26.495 42.7453Z" fill="#4591E3"/>
<path d="M26.495 42.7453C13.6308 33.031 4.02821 42.1226 0.834961 47.8828L4.94058 83.3776L46.5884 79.1743L53.8658 42.7453C47.3652 51.619 42.5754 54.8883 26.495 42.7453Z" fill="url(#paint0_linear_445_48)" fill-opacity="0.3"/>
<path d="M25.0288 50.7244C12.1645 41.01 2.56191 50.1017 -0.631348 55.8618L3.47427 91.3567L45.122 87.1533L52.3995 50.7244C45.899 59.5981 41.109 62.8674 25.0288 50.7244Z" fill="#4591E3"/>
<path d="M25.0288 50.7244C12.1645 41.01 2.56191 50.1017 -0.631348 55.8618L3.47427 91.3567L45.122 87.1533L52.3995 50.7244C45.899 59.5981 41.109 62.8674 25.0288 50.7244Z" fill="url(#paint1_linear_445_48)" fill-opacity="0.13"/>
</g>
<defs>
<linearGradient id="paint0_linear_445_48" x1="29.2205" y1="35.947" x2="24.9825" y2="51.6096" gradientUnits="userSpaceOnUse">
<stop/>
<stop offset="1" stop-opacity="0"/>
</linearGradient>
<linearGradient id="paint1_linear_445_48" x1="27.7541" y1="43.926" x2="23.5163" y2="59.5885" gradientUnits="userSpaceOnUse">
<stop/>
<stop offset="1" stop-opacity="0"/>
</linearGradient>
</defs>
</svg>
