<svg width="629" height="511" viewBox="0 0 629 511" fill="none" xmlns="http://www.w3.org/2000/svg">
<path d="M625.964 492.969L486.883 307.276C482.468 301.75 473.637 301.75 469.222 307.276L430.588 359.226L395.266 406.754L242.939 202.272V164.691H373.19C377.605 164.691 382.02 161.375 383.124 158.059C384.228 153.638 383.124 149.217 379.813 145.901L323.518 93.9514L379.813 42.0018C383.124 38.6859 384.228 34.2646 383.124 29.8434C380.916 26.5275 377.605 23.2115 372.086 23.2115H242.939V11.0531C242.939 4.42124 238.524 0 231.901 0C225.278 0 220.863 4.42124 220.863 11.0531V34.2646V153.638V202.272L2.30717 492.969C0.0995312 496.285 -1.00429 500.706 1.20335 504.022C3.41098 507.338 6.72243 510.654 11.1377 510.654H451.561H617.133C621.548 510.654 624.86 508.443 627.068 504.022C629.275 499.6 628.171 496.285 625.964 492.969ZM242.939 45.3177H344.49L300.338 86.2142C298.13 88.4249 297.026 91.7408 297.026 93.9514C297.026 96.162 298.13 100.583 300.338 101.689L344.49 142.585H242.939V45.3177ZM478.052 332.699L507.855 373.595L499.025 390.175L491.298 378.016C489.09 374.7 485.779 373.595 482.468 373.595C479.156 373.595 475.845 374.7 473.637 378.016L464.806 387.964L453.768 365.858L478.052 332.699ZM231.901 224.378L284.884 295.118L260.6 334.909L240.732 306.171C238.524 302.855 235.213 301.75 231.901 301.75C228.59 301.75 225.278 302.855 223.071 306.171L204.306 329.383L183.333 288.486L231.901 224.378ZM33.214 488.547L167.88 308.382L191.06 354.805C193.268 358.121 196.579 360.331 199.89 360.331C203.202 360.331 207.617 359.226 209.825 355.91L229.693 330.488L250.666 361.437C252.874 364.753 256.185 365.858 259.497 365.858C262.808 365.858 266.119 363.647 268.327 360.331L297.026 313.908L427.277 488.547H33.214ZM457.08 487.442V488.547L409.616 424.439L439.419 384.648L454.872 411.176C457.08 414.492 460.391 416.702 463.703 416.702C467.014 416.702 470.326 415.597 473.637 412.281L482.468 401.228L492.402 415.597C494.61 418.913 497.921 420.018 501.232 420.018C501.232 420.018 501.232 420.018 502.336 420.018C505.648 420.018 510.063 417.807 511.167 414.492L523.309 391.28L595.057 487.442H457.08Z" fill="#64E154"/>
<path d="M516.548 229.418C516.548 248.071 501.427 263.192 482.774 263.192C464.121 263.192 449 248.071 449 229.418C449 210.765 464.121 195.644 482.774 195.644C501.427 195.644 516.548 210.765 516.548 229.418Z" stroke="#64E153" stroke-width="20"/>
<path d="M539.513 220.766L539.448 220.645C539.401 220.563 539.322 220.468 539.213 220.365C539.103 220.263 538.976 220.157 538.825 220.054C538.679 219.945 538.484 219.866 538.251 219.811C538.018 219.755 537.769 219.75 537.496 219.789C536.887 219.876 536.405 220.182 536.043 220.714C535.68 221.239 535.551 221.867 535.656 222.598C535.7 222.906 535.79 223.201 535.913 223.479C536.035 223.757 536.162 223.976 536.286 224.142C536.41 224.301 536.544 224.454 536.694 224.592C536.843 224.725 536.95 224.81 537.003 224.85C537.061 224.883 537.107 224.912 537.139 224.931L537.71 224.245L537.605 224.177C537.534 224.134 537.441 224.065 537.333 223.974C537.225 223.882 537.109 223.769 536.996 223.643C536.882 223.511 536.775 223.343 536.68 223.132C536.584 222.921 536.518 222.705 536.485 222.479C536.415 221.986 536.492 221.578 536.706 221.252C536.925 220.924 537.23 220.739 537.625 220.682C538.077 220.617 538.462 220.704 538.77 220.95C539.078 221.196 539.267 221.571 539.339 222.07L539.459 222.905L540.288 222.786L540.168 221.951C540.084 221.365 540.173 220.867 540.434 220.462C540.696 220.058 541.053 219.823 541.494 219.76C541.952 219.694 542.36 219.813 542.718 220.123C543.069 220.428 543.295 220.887 543.382 221.49C543.422 221.768 543.418 222.035 543.385 222.3C543.352 222.565 543.3 222.78 543.231 222.956C543.161 223.126 543.083 223.285 542.986 223.435C542.89 223.591 542.821 223.689 542.78 223.731C542.739 223.778 542.703 223.813 542.682 223.834L543.359 224.346L543.479 224.228C543.556 224.146 543.643 224.015 543.743 223.841C543.847 223.66 543.943 223.463 544.029 223.238C544.115 223.012 544.182 222.736 544.223 222.405C544.264 222.068 544.256 221.725 544.205 221.372C544.085 220.536 543.751 219.898 543.196 219.456C542.641 219.009 542.036 218.836 541.375 218.93C541.05 218.977 540.767 219.071 540.522 219.219C540.277 219.366 540.092 219.517 539.972 219.676C539.852 219.83 539.759 220.003 539.68 220.198C539.601 220.387 539.555 220.523 539.542 220.596C539.529 220.669 539.52 220.73 539.513 220.766Z" fill="#4BFF33"/>
<path d="M537.386 214.188C537.491 214.542 537.615 214.817 537.758 215.013L534.203 214.005L534.458 214.865L538.97 216.158L539.22 216.237C539.396 216.295 539.643 216.326 539.958 216.337C540.274 216.353 540.574 216.313 540.866 216.227C541.619 216.005 542.172 215.56 542.523 214.888C542.875 214.216 542.932 213.478 542.696 212.68C542.46 211.882 542.013 211.3 541.353 210.927C540.694 210.559 539.992 210.479 539.239 210.702C538.486 210.924 537.934 211.369 537.579 212.03C537.226 212.696 537.157 213.413 537.386 214.188ZM539.494 211.562C540.044 211.399 540.54 211.442 540.98 211.691C541.42 211.939 541.725 212.35 541.894 212.923C542.063 213.497 542.031 214.007 541.795 214.45C541.561 214.898 541.167 215.197 540.616 215.36C540.065 215.523 539.566 215.487 539.126 215.238C538.688 214.995 538.383 214.584 538.213 214.011C538.044 213.438 538.076 212.927 538.311 212.479C538.545 212.031 538.943 211.724 539.494 211.562Z" fill="#4BFF33"/>
<path d="M534.935 206.647C535.062 206.924 535.227 207.171 535.424 207.39C535.621 207.609 535.761 207.745 535.848 207.795C535.936 207.845 536 207.887 536.046 207.917L533.574 208.851L532.025 205.474L531.258 205.826L533.134 209.917L537.567 208.212L537.291 207.61L537.008 207.541C536.831 207.493 536.61 207.362 536.34 207.138C536.072 206.919 535.858 206.637 535.702 206.296C535.465 205.779 535.437 205.283 535.608 204.811C535.786 204.343 536.131 203.985 536.648 203.748C537.17 203.508 537.672 203.478 538.14 203.656C538.611 203.84 538.971 204.204 539.22 204.747C539.335 204.997 539.405 205.249 539.444 205.502C539.483 205.755 539.491 205.97 539.47 206.147C539.448 206.325 539.418 206.5 539.368 206.671C539.32 206.848 539.282 206.962 539.257 207.019C539.231 207.075 539.206 207.119 539.19 207.14L539.982 207.434L540.058 207.276C540.114 207.186 540.163 207.041 540.209 206.846C540.263 206.654 540.299 206.438 540.32 206.202C540.343 205.972 540.329 205.689 540.275 205.359C540.223 205.035 540.121 204.714 539.977 204.4C539.618 203.617 539.098 203.088 538.41 202.824C537.726 202.557 537.012 202.588 536.266 202.93C535.558 203.255 535.074 203.773 534.819 204.483C534.565 205.193 534.598 205.913 534.935 206.647Z" fill="#4BFF33"/>
<path d="M535.123 196.12L537.198 194.493L536.641 193.783L535.225 194.893L531.301 189.892L532.716 188.781L532.159 188.072L530.084 189.699L530.714 190.501L524.763 195.171L527.95 199.232L529.932 197.677C530.485 197.243 531.033 196.887 531.573 196.598C532.113 196.308 532.562 196.112 532.918 195.996C533.278 195.885 533.625 195.806 533.952 195.766C534.286 195.727 534.501 195.707 534.605 195.716C534.708 195.724 534.782 195.733 534.83 195.747L535.123 196.12ZM529.378 196.972L528.06 198.006L525.987 195.365L531.275 191.216L534.237 194.991L534.017 194.985C533.869 194.967 533.65 194.983 533.351 195.039C533.052 195.094 532.716 195.179 532.344 195.293C531.971 195.406 531.521 195.611 530.984 195.905C530.449 196.191 529.913 196.552 529.378 196.972Z" fill="#4BFF33"/>
<path d="M528.902 186.519L528.228 185.919L525.676 188.786L522.183 185.677L524.735 182.81L524.061 182.21L518.475 188.487L519.149 189.087L521.623 186.308L525.115 189.416L522.642 192.195L523.316 192.795L528.902 186.519Z" fill="#4BFF33"/>
<path d="M519.987 179.754L518.272 182.364L515.016 180.224L514.556 180.925L517.812 183.064L516.297 185.371L512.237 182.703L511.774 183.408L516.588 186.571L521.202 179.549L516.285 176.319L515.825 177.019L519.987 179.754Z" fill="#4BFF33"/>
<path d="M506.621 181.693C506.179 181.504 505.766 181.487 505.372 181.65C504.98 181.807 504.685 182.108 504.496 182.55L505.1 182.808C505.208 182.555 505.384 182.381 505.628 182.288C505.874 182.189 506.119 182.198 506.366 182.304C506.614 182.41 506.79 182.581 506.883 182.825C506.984 183.065 506.975 183.31 506.867 183.563L507.476 183.823C507.665 183.382 507.684 182.963 507.522 182.568C507.367 182.171 507.063 181.882 506.621 181.693ZM507.229 171.579L503.927 179.305L504.643 179.612L512.051 175.399L509.385 181.638L510.215 181.993L513.517 174.266L512.8 173.96L505.389 178.165L508.053 171.931L507.229 171.579Z" fill="#4BFF33"/>
</svg>
