<svg width="30" height="30" viewBox="0 0 30 30" fill="none" xmlns="http://www.w3.org/2000/svg">
<path d="M29 15C29 7.26719 22.7328 1 15 1C7.26719 1 1 7.26719 1 15C1 22.7328 7.26719 29 15 29C15.082 29 15.1641 29 15.2461 28.9945V18.1008H12.2383V14.5953H15.2461V12.0141C15.2461 9.02266 17.0727 7.39297 19.7414 7.39297C21.0211 7.39297 22.1203 7.48594 22.4375 7.52969V10.6578H20.6C19.1508 10.6578 18.8664 11.3469 18.8664 12.3586V14.5898H22.3391L21.8852 18.0953H18.8664V28.4586C24.718 26.7797 29 21.393 29 15Z" fill="#2EB11C"/>
</svg>
