<svg width="30" height="30" viewBox="0 0 30 30" fill="none" xmlns="http://www.w3.org/2000/svg">
<path d="M15.0045 8.32437C11.3179 8.32437 8.3333 11.3122 8.3333 14.9954C8.3333 18.682 11.3211 21.6665 15.0045 21.6665C18.6911 21.6665 21.6756 18.6787 21.6756 14.9954C21.6756 11.3089 18.6878 8.32437 15.0045 8.32437ZM15.0045 19.3254C12.6114 19.3254 10.6744 17.3874 10.6744 14.9954C10.6744 12.6035 12.6125 10.6654 15.0045 10.6654C17.3965 10.6654 19.3346 12.6035 19.3346 14.9954C19.3356 17.3874 17.3976 19.3254 15.0045 19.3254Z" fill="#2EB11C"/>
<path d="M20.3606 2.08167C17.9686 1.97009 12.0438 1.9755 9.64967 2.08167C7.54583 2.18025 5.69008 2.68832 4.194 4.18438C1.69366 6.68467 2.01325 10.0538 2.01325 14.9948C2.01325 20.0517 1.73158 23.3428 4.194 25.8052C6.70408 28.3141 10.122 27.9859 15.0046 27.9859C20.0139 27.9859 21.7429 27.9891 23.5142 27.3034C25.9224 26.3685 27.7403 24.2159 27.9179 20.3496C28.0306 17.9566 28.0241 12.033 27.9179 9.63887C27.7034 5.07487 25.254 2.307 20.3606 2.08167ZM24.1468 24.1509C22.5078 25.79 20.2338 25.6438 14.9732 25.6438C9.5565 25.6438 7.38441 25.7239 5.7995 24.1347C3.97408 22.318 4.3045 19.4006 4.3045 14.9774C4.3045 8.99213 3.69025 4.68162 9.69733 4.37396C11.0775 4.32521 11.4837 4.30896 14.958 4.30896L15.0067 4.34146C20.7798 4.34146 25.3093 3.73697 25.5812 9.74287C25.6429 11.1133 25.657 11.5249 25.657 14.9937C25.6559 20.3474 25.7578 22.5325 24.1468 24.1509Z" fill="#2EB11C"/>
<path d="M21.9398 9.62004C22.8007 9.62004 23.4987 8.9221 23.4987 8.06115C23.4987 7.2002 22.8007 6.50227 21.9398 6.50227C21.0788 6.50227 20.3809 7.2002 20.3809 8.06115C20.3809 8.9221 21.0788 9.62004 21.9398 9.62004Z" fill="#2EB11C"/>
</svg>
