<svg width="30" height="30" viewBox="0 0 30 30" fill="none" xmlns="http://www.w3.org/2000/svg">
<path d="M23.6809 16.6738C23.2585 16.1444 23.3793 15.9089 23.6809 15.4356C23.6863 15.4302 27.1733 10.6482 27.5326 9.02643L27.5348 9.02534C27.7133 8.43434 27.5348 8 26.6715 8H23.8148C23.0875 8 22.7522 8.37275 22.5726 8.78981C22.5726 8.78981 21.1181 12.2451 19.0606 14.4848C18.3965 15.132 18.0895 15.3395 17.7269 15.3395C17.5484 15.3395 17.2708 15.132 17.2708 14.541V9.02534C17.2708 8.31657 17.0672 8 16.4652 8H11.9733C11.5172 8 11.2461 8.33062 11.2461 8.63854C11.2461 9.31058 12.2749 9.46509 12.3816 11.3559V15.4583C12.3816 16.3573 12.2172 16.5226 11.8525 16.5226C10.8814 16.5226 8.5244 13.0533 7.12764 9.08261C6.84567 8.31225 6.57024 8.00108 5.83756 8.00108H2.9798C2.16439 8.00108 2 8.37383 2 8.79089C2 9.52775 2.97109 13.1916 6.5158 18.032C8.87822 21.336 12.2052 23.1263 15.2317 23.1263C17.0509 23.1263 17.273 22.7287 17.273 22.0447C17.273 18.8877 17.1086 18.5895 18.0198 18.5895C18.4422 18.5895 19.1694 18.7969 20.8677 20.3906C22.8088 22.2803 23.1278 23.1263 24.2143 23.1263H27.071C27.8853 23.1263 28.2979 22.7287 28.0606 21.9443C27.5173 20.2944 23.8464 16.9007 23.6809 16.6738Z" fill="#2EB11C"/>
</svg>
